<?xml version="1.0" encoding="UTF-8"?>
<svg style="background-color:#ffffff00" preserveAspectRatio="none" version="1.1" viewBox="0 0 113 23" xml:space="preserve" xmlns="http://www.w3.org/2000/svg">
		<path d="m91.006 4.8559c1.0283-0.1292 1.979 0 2.8587 0.3941 0.8731 0.4007 1.5781 0.8853 2.1084 1.4668 0.4462 0.4523 0.8472 1.0597 1.2094 1.8092 0.3557 0.7559 0.5368 1.5701 0.5368 2.4424 0.0259 0.9562-0.1488 1.7962-0.5174 2.5199-0.3751 0.7301-0.8213 1.3439-1.3517 1.848-0.5304 0.5297-1.1578 0.9691-1.8821 1.3245-0.7308 0.3618-1.5328 0.5363-2.4059 0.5363-0.7956 0-1.5393-0.1292-2.2248-0.3942-0.6921-0.2649-1.3-0.6267-1.8303-1.0919-0.5304-0.4652-0.9767-0.995-1.3324-1.5895-0.3622-0.5945-0.6015-1.2083-0.7308-1.848-0.1358-0.6332-0.1682-1.2341-0.1035-1.8027s0.1941-1.1049 0.3816-1.6089c0.1811-0.504 0.4204-0.9562 0.7114-1.3698 0.2911-0.407 0.595-0.7559 0.9184-1.0532 0.8925-0.8658 2.1149-1.3956 3.6542-1.583zm-36.75 2.6362c0.291 0.4136 0.5303 0.8658 0.7179 1.3698 0.1811 0.504 0.3105 1.0403 0.3751 1.6089 0.0647 0.5686 0.0323 1.1695-0.097 1.8027-0.1294 0.6397-0.3751 1.2535-0.7308 1.848-0.3622 0.5945-0.802 1.1243-1.3324 1.5895-0.5303 0.4652-1.1447 0.827-1.8302 1.0919-0.6921 0.265-1.4358 0.3942-2.2249 0.3942-0.8796 0-1.6816-0.1745-2.406-0.5363-0.7308-0.3554-1.3581-0.7948-1.882-1.3245-0.5303-0.5041-0.9831-1.1179-1.3517-1.848-0.3752-0.7237-0.5433-1.5637-0.5174-2.5199 0-0.8723 0.1746-1.6865 0.5368-2.4424 0.3557-0.7495 0.7567-1.3569 1.2094-1.8092 0.5303-0.5815 1.2288-1.0661 2.1084-1.4668 0.8731-0.3941 1.8239-0.5233 2.8587-0.3941 1.5393 0.1874 2.7551 0.7172 3.6541 1.583 0.3169 0.2973 0.621 0.6462 0.912 1.0532zm-33.96 4.8571l0.0232-0.2049c0.0849-0.8791 0.0859-1.6995 0.0015-2.4613l3.4005-5e-4c0.2069-1.3439 0.8213-2.4617 1.8431-3.3534 1.0219-0.8852 2.2572-1.3956 3.7189-1.5249h0.7955c1.0866 0.0775 1.992 0.3489 2.7228 0.8142 0.7245 0.4652 1.3583 1.0273 1.8886 1.6864l-14.394 5.0444zm18.955 0.1954l-3.5715 3e-4c-0.3169 1.1373-0.9636 2.1516-1.9468 3.0368-0.983 0.8853-2.186 1.3957-3.6152 1.5249-0.7697 0.0517-1.4682-0.0258-2.0891-0.2391-0.6209-0.2067-1.1707-0.4587-1.6427-0.7495-0.2975-0.155-0.5756-0.3489-0.8408-0.575-0.2652-0.2262-0.4787-0.4847-0.6338-0.7754l14.343-4.9199-0.0032 0.0352 1e-4 2.6617zm-31.091-11.217c-0.2911 0.0646-0.5692 0.1422-0.8343 0.2197-0.8214 0.2908-1.5522 0.6397-2.1861 1.0532-0.6338 0.4135-1.2288 0.8917-1.785 1.4473-0.6921 0.6914-1.2935 1.5055-1.8109 2.4424-0.5175 0.9434-0.8408 2.0483-0.9702 3.3147-0.1034 0.9563-0.097 1.835 0.013 2.6427 0.1164 0.8077 0.3169 1.5507 0.595 2.2227s0.6079 1.2858 0.996 1.8415 0.789 1.0467 1.2159 1.4667c0.4462 0.4523 0.9507 0.8723 1.5069 1.2535 0.5563 0.3877 1.1771 0.7172 1.8692 0.9951 0.6855 0.2778 1.4293 0.4781 2.2248 0.5944 0.7955 0.1098 1.6557 0.1228 2.587 0.0194 1.2418-0.1292 2.3478-0.4587 3.3308-0.9757 0.9831-0.5169 1.8303-1.1436 2.5482-1.8867 0.7115-0.7107 1.3388-1.5571 1.8691-2.5393 0.3117-0.5734 0.555-1.1892 0.7284-1.8474 0.1696 0.7228 0.4203 1.3989 0.7592 2.0284 0.5045 0.9433 1.1383 1.7574 1.9144 2.4423 0.4721 0.4523 0.983 0.8594 1.5263 1.2276 0.5433 0.3748 1.1448 0.6914 1.8045 0.9563 0.6596 0.2649 1.3905 0.4588 2.186 0.5751 0.7955 0.1098 1.6687 0.1228 2.6259 0.0194 1.19-0.1292 2.27-0.4459 3.2402-0.9498 0.9637-0.504 1.8173-1.0855 2.5611-1.7511 1.1887-1.1045 2.0484-2.5251 2.5755-4.2589l-1e-4 7.0373h3.7253v-2.0418c0.3686 0.2197 0.7308 0.4394 1.093 0.6655 0.3557 0.2262 0.7309 0.4329 1.1317 0.6138 0.6339 0.2973 1.3648 0.517 2.2056 0.6591 0.8343 0.1422 1.7397 0.181 2.7228 0.1034 1.2418-0.1034 2.3607-0.4135 3.3567-0.9304 0.9895-0.5169 1.8691-1.1437 2.6452-1.8932 0.7632-0.7366 1.4035-1.5959 1.9209-2.578 0.2704-0.51 0.4879-1.054 0.6532-1.6311v7.0327h3.7252l6e-4 -7.2635c0.1915 0.7716 0.4436 1.4315 0.7574 1.9781 0.5304 0.9305 1.1448 1.7446 1.8433 2.4553 0.6984 0.7173 1.5328 1.344 2.5029 1.8867 0.9701 0.5428 2.089 0.8723 3.3631 0.9757 1.9015 0.1551 3.5442-0.0581 4.9219-0.6526 1.3776-0.5944 2.5158-1.3698 3.4213-2.3261 0.7632-0.8141 1.3841-1.7445 1.8627-2.7783 0.3074-0.6641 0.5314-1.3926 0.6751-2.1864 0.1674 0.9111 0.4538 1.7478 0.8577 2.5095 0.5174 0.9821 1.1577 1.8414 1.9273 2.578 0.7696 0.7495 1.6492 1.3763 2.6452 1.8932 0.9896 0.5169 2.1084 0.827 3.3567 0.9304 0.9766 0.0776 1.882 0.0388 2.7228-0.1034 0.8344-0.1421 1.5717-0.3618 2.2054-0.6591 0.3945-0.1809 0.7697-0.3876 1.1319-0.6138 0.3557-0.2261 0.7179-0.4458 1.093-0.6655v2.0418h3.7253l-7e-4 -7.6681c0.1749 0.9632 0.5223 1.8573 1.0407 2.68 0.6532 1.0467 1.3776 1.919 2.1731 2.6039 0.802 0.7689 1.7657 1.3763 2.891 1.8285 1.1253 0.4523 2.4383 0.6333 3.9517 0.5557v-3.7217c-1.8821-0.1292-3.3954-0.7237-4.5338-1.7898-1.1383-1.0597-1.7721-2.5135-1.9014-4.3485v-9.9892h-3.7253c-0.0255 3.3314-0.0378 5.942-0.0382 7.8319-0.1649-0.8149-0.4398-1.5797-0.8208-2.2946-0.5367-0.995-1.1642-1.8479-1.882-2.5587-0.7244-0.743-1.5652-1.3762-2.5288-1.9061-0.9702-0.5298-2.0632-0.8593-3.2791-0.995-0.5821-0.0517-1.2159-0.0581-1.8885-0.0194-0.6726 0.0388-1.2224 0.1163-1.6492 0.2197-0.9832 0.2132-1.8756 0.5622-2.6841 1.0532-0.8084 0.491-1.5134 1.0403-2.1213 1.6476-0.4269 0.4265-0.8214 0.9111-1.19 1.4668-0.3751 0.5557-0.6986 1.1759-0.9766 1.8479-0.2782 0.672-0.4787 1.4151-0.5951 2.2227-0.0913 0.6335-0.1148 1.3103-0.0708 2.0313l-3.3699-0.0347c-0.1293 0.8206-0.3751 1.5894-0.7308 2.3002-0.3623 0.7172-0.8214 1.3311-1.3906 1.8479-0.5691 0.517-1.2288 0.9176-1.9725 1.1954-0.7439 0.2778-1.5523 0.3877-2.419 0.3295-1.6427-0.1292-3.0009-0.7301-4.0745-1.8027-1.0736-1.0725-1.6816-2.4036-1.8109-3.9931-0.0776-0.9757-0.097-2.0418-0.0582-3.1919s0.0582-2.3067 0.0582-3.4762h5.381v-3.7217h-12.522v7.1365c-0.0867-0.2924-0.1858-0.5733-0.2976-0.8432-0.278-0.672-0.6014-1.2922-0.9701-1.8479-0.3751-0.5557-0.7696-1.0403-1.19-1.4668-0.608-0.6073-1.3194-1.1566-2.1279-1.6476-0.8084-0.491-1.7009-0.84-2.6775-1.0532-0.4268-0.1034-0.9831-0.1809-1.6556-0.2197-0.6727-0.0387-1.3001-0.0323-1.8822 0.0194-1.2223 0.1357-2.3153 0.4652-3.279 0.995-0.9701 0.5299-1.8109 1.1631-2.5288 1.9061-0.7244 0.7108-1.3517 1.5637-1.882 2.5587-0.334 0.6191-0.5847 1.2759-0.7518 1.97-0.7254-2.5116-2.0516-4.4226-3.9773-5.724-0.8796-0.6074-1.8627-1.092-2.9622-1.4667-1.0994-0.3683-2.4317-0.4717-3.9904-0.3166-1.1965 0.1357-2.2766 0.4458-3.2403 0.9369-0.9701 0.4911-1.8238 1.079-2.5611 1.7639-1.2938 1.2057-2.1672 2.7908-2.6165 4.7542-0.1054-0.4216-0.2421-0.8223-0.4104-1.2005-0.595-1.3374-1.3452-2.4553-2.2442-3.3534-0.4527-0.4523-0.9701-0.8723-1.5522-1.2729-0.5821-0.3941-1.2223-0.7236-1.9079-0.9886-0.6856-0.2649-1.4423-0.4523-2.2636-0.5556-0.8214-0.1034-1.6817-0.1099-2.5806-0.0065-0.3751 0.0582-0.705 0.1163-0.996 0.1809zm-0.2587 3.9931c0.5691-0.239 1.2741-0.4135 2.1278-0.5169 0.8731-0.1034 1.701 0 2.4835 0.3166 0.7762 0.3166 1.4358 0.7108 1.9662 1.1889 0.5303 0.4782 1.0024 1.0791 1.4293 1.7898 0.4268 0.7108 0.6662 1.5701 0.7179 2.5781v0.4781c-0.0517 0.8465-0.2457 1.6283-0.5756 2.3391-0.3363 0.7171-0.7632 1.331-1.2935 1.8479-0.5304 0.5169-1.1448 0.9369-1.8303 1.2535-0.6856 0.3166-1.4293 0.4975-2.2249 0.5492-0.291 0-0.5691-0.0129-0.8343-0.0388-0.2651-0.0258-0.5174-0.0646-0.7502-0.1163-1.3582-0.2907-2.4836-0.9498-3.3826-1.9836-0.899-1.0339-1.4034-2.3003-1.5069-3.8122-0.0258-0.2649-0.0194-0.5298 0.0194-0.7948 0.0388-0.2649 0.0841-0.5298 0.1423-0.7947 0.1553-0.7108 0.401-1.3375 0.7502-1.8673 0.3428-0.5298 0.7438-0.9886 1.1965-1.3892 0.4721-0.4458 0.9961-0.7883 1.5652-1.0274z" fill="#aaa"/>
		<path d="m91.006 5.8559c1.0283-0.1292 1.979 0 2.8587 0.3941 0.8731 0.4007 1.5781 0.8853 2.1084 1.4668 0.4462 0.4523 0.8472 1.0597 1.2094 1.8092 0.3557 0.7559 0.5368 1.5701 0.5368 2.4424 0.0259 0.9562-0.1488 1.7962-0.5174 2.5199-0.3751 0.7301-0.8213 1.3439-1.3517 1.848-0.5304 0.5297-1.1578 0.9691-1.8821 1.3245-0.7308 0.3618-1.5328 0.5363-2.4059 0.5363-0.7956 0-1.5393-0.1292-2.2248-0.3942-0.6921-0.2649-1.3-0.6267-1.8303-1.0919-0.5304-0.4652-0.9767-0.995-1.3324-1.5895-0.3622-0.5945-0.6015-1.2083-0.7308-1.848-0.1358-0.6332-0.1682-1.2341-0.1035-1.8027s0.1941-1.1049 0.3816-1.6089c0.1811-0.504 0.4204-0.9562 0.7114-1.3698 0.2911-0.407 0.595-0.7559 0.9184-1.0532 0.8925-0.8658 2.1149-1.3956 3.6542-1.583zm-36.75 2.6362c0.291 0.4136 0.5303 0.8658 0.7179 1.3698 0.1811 0.504 0.3105 1.0403 0.3751 1.6089 0.0647 0.5686 0.0323 1.1695-0.097 1.8027-0.1294 0.6397-0.3751 1.2535-0.7308 1.848-0.3622 0.5945-0.802 1.1243-1.3324 1.5895-0.5303 0.4652-1.1447 0.827-1.8302 1.0919-0.6921 0.265-1.4358 0.3942-2.2249 0.3942-0.8796 0-1.6816-0.1745-2.406-0.5363-0.7308-0.3554-1.3581-0.7948-1.882-1.3245-0.5303-0.5041-0.9831-1.1179-1.3517-1.848-0.3752-0.7237-0.5433-1.5637-0.5174-2.5199 0-0.8723 0.1746-1.6865 0.5368-2.4424 0.3557-0.7495 0.7567-1.3569 1.2094-1.8092 0.5303-0.5815 1.2288-1.0661 2.1084-1.4668 0.8731-0.3941 1.8239-0.5233 2.8587-0.3941 1.5393 0.1874 2.7551 0.7172 3.6541 1.583 0.3169 0.2973 0.621 0.6462 0.912 1.0532zm-33.96 4.8571l0.0232-0.2049c0.0849-0.8791 0.0859-1.6995 0.0015-2.4613l3.4005-5e-4c0.2069-1.3439 0.8213-2.4617 1.8431-3.3534 1.0219-0.8852 2.2572-1.3956 3.7189-1.5249h0.7955c1.0866 0.0775 1.992 0.3489 2.7228 0.8142 0.7245 0.4652 1.3583 1.0273 1.8886 1.6864l-14.394 5.0444zm18.955 0.1954l-3.5715 3e-4c-0.3169 1.1373-0.9636 2.1516-1.9468 3.0368-0.983 0.8853-2.186 1.3957-3.6152 1.5249-0.7697 0.0517-1.4682-0.0258-2.0891-0.2391-0.6209-0.2067-1.1707-0.4587-1.6427-0.7495-0.2975-0.155-0.5756-0.3489-0.8408-0.575-0.2652-0.2262-0.4787-0.4847-0.6338-0.7754l14.343-4.9199-0.0032 0.0352 1e-4 2.6617zm-31.091-11.217c-0.2911 0.0646-0.5692 0.1422-0.8343 0.2197-0.8214 0.2908-1.5522 0.6397-2.1861 1.0532-0.6338 0.4135-1.2288 0.8917-1.785 1.4473-0.6921 0.6914-1.2935 1.5055-1.8109 2.4424-0.5175 0.9434-0.8408 2.0483-0.9702 3.3147-0.1034 0.9563-0.097 1.835 0.013 2.6427 0.1164 0.8077 0.3169 1.5507 0.595 2.2227s0.6079 1.2858 0.996 1.8415 0.789 1.0467 1.2159 1.4667c0.4462 0.4523 0.9507 0.8723 1.5069 1.2535 0.5563 0.3877 1.1771 0.7172 1.8692 0.9951 0.6855 0.2778 1.4293 0.4781 2.2248 0.5944 0.7955 0.1098 1.6557 0.1228 2.587 0.0194 1.2418-0.1292 2.3478-0.4587 3.3308-0.9757 0.9831-0.5169 1.8303-1.1436 2.5482-1.8867 0.7115-0.7107 1.3388-1.5571 1.8691-2.5393 0.3117-0.5734 0.555-1.1892 0.7284-1.8474 0.1696 0.7228 0.4203 1.3989 0.7592 2.0284 0.5045 0.9433 1.1383 1.7574 1.9144 2.4423 0.4721 0.4523 0.983 0.8594 1.5263 1.2276 0.5433 0.3748 1.1448 0.6914 1.8045 0.9563 0.6596 0.2649 1.3905 0.4588 2.186 0.5751 0.7955 0.1098 1.6687 0.1228 2.6259 0.0194 1.19-0.1292 2.27-0.4459 3.2402-0.9498 0.9637-0.504 1.8173-1.0855 2.5611-1.7511 1.1887-1.1045 2.0484-2.5251 2.5755-4.2589l-1e-4 7.0373h3.7253v-2.0418c0.3686 0.2197 0.7308 0.4394 1.093 0.6655 0.3557 0.2262 0.7309 0.4329 1.1317 0.6138 0.6339 0.2973 1.3648 0.517 2.2056 0.6591 0.8343 0.1422 1.7397 0.181 2.7228 0.1034 1.2418-0.1034 2.3607-0.4135 3.3567-0.9304 0.9895-0.5169 1.8691-1.1437 2.6452-1.8932 0.7632-0.7366 1.4035-1.5959 1.9209-2.578 0.2704-0.51 0.4879-1.054 0.6532-1.6311v7.0327h3.7252l6e-4 -7.2635c0.1915 0.7716 0.4436 1.4315 0.7574 1.9781 0.5304 0.9305 1.1448 1.7446 1.8433 2.4553 0.6984 0.7173 1.5328 1.344 2.5029 1.8867 0.9701 0.5428 2.089 0.8723 3.3631 0.9757 1.9015 0.1551 3.5442-0.0581 4.9219-0.6526 1.3776-0.5944 2.5158-1.3698 3.4213-2.3261 0.7632-0.8141 1.3841-1.7445 1.8627-2.7783 0.3074-0.6641 0.5314-1.3926 0.6751-2.1864 0.1674 0.9111 0.4538 1.7478 0.8577 2.5095 0.5174 0.9821 1.1577 1.8414 1.9273 2.578 0.7696 0.7495 1.6492 1.3763 2.6452 1.8932 0.9896 0.5169 2.1084 0.827 3.3567 0.9304 0.9766 0.0776 1.882 0.0388 2.7228-0.1034 0.8344-0.1421 1.5717-0.3618 2.2054-0.6591 0.3945-0.1809 0.7697-0.3876 1.1319-0.6138 0.3557-0.2261 0.7179-0.4458 1.093-0.6655v2.0418h3.7253l-7e-4 -7.6681c0.1749 0.9632 0.5223 1.8573 1.0407 2.68 0.6532 1.0467 1.3776 1.919 2.1731 2.6039 0.802 0.7689 1.7657 1.3763 2.891 1.8285 1.1253 0.4523 2.4383 0.6333 3.9517 0.5557v-3.7217c-1.8821-0.1292-3.3954-0.7237-4.5338-1.7898-1.1383-1.0597-1.7721-2.5135-1.9014-4.3485v-9.9892h-3.7253c-0.0255 3.3314-0.0378 5.942-0.0382 7.8319-0.1649-0.8149-0.4398-1.5797-0.8208-2.2946-0.5367-0.995-1.1642-1.8479-1.882-2.5587-0.7244-0.743-1.5652-1.3762-2.5288-1.9061-0.9702-0.5298-2.0632-0.8593-3.2791-0.995-0.5821-0.0517-1.2159-0.0581-1.8885-0.0194-0.6726 0.0388-1.2224 0.1163-1.6492 0.2197-0.9832 0.2132-1.8756 0.5622-2.6841 1.0532-0.8084 0.491-1.5134 1.0403-2.1213 1.6476-0.4269 0.4265-0.8214 0.9111-1.19 1.4668-0.3751 0.5557-0.6986 1.1759-0.9766 1.8479-0.2782 0.672-0.4787 1.4151-0.5951 2.2227-0.0913 0.6335-0.1148 1.3103-0.0708 2.0313l-3.3699-0.0347c-0.1293 0.8206-0.3751 1.5894-0.7308 2.3002-0.3623 0.7172-0.8214 1.3311-1.3906 1.8479-0.5691 0.517-1.2288 0.9176-1.9725 1.1954-0.7439 0.2778-1.5523 0.3877-2.419 0.3295-1.6427-0.1292-3.0009-0.7301-4.0745-1.8027-1.0736-1.0725-1.6816-2.4036-1.8109-3.9931-0.0776-0.9757-0.097-2.0418-0.0582-3.1919s0.0582-2.3067 0.0582-3.4762h5.381v-3.7217h-12.522v7.1365c-0.0867-0.2924-0.1858-0.5733-0.2976-0.8432-0.278-0.672-0.6014-1.2922-0.9701-1.8479-0.3751-0.5557-0.7696-1.0403-1.19-1.4668-0.608-0.6073-1.3194-1.1566-2.1279-1.6476-0.8084-0.491-1.7009-0.84-2.6775-1.0532-0.4268-0.1034-0.9831-0.1809-1.6556-0.2197-0.6727-0.0387-1.3001-0.0323-1.8822 0.0194-1.2223 0.1357-2.3153 0.4652-3.279 0.995-0.9701 0.5299-1.8109 1.1631-2.5288 1.9061-0.7244 0.7108-1.3517 1.5637-1.882 2.5587-0.334 0.6191-0.5847 1.2759-0.7518 1.97-0.7254-2.5116-2.0516-4.4226-3.9773-5.724-0.8796-0.6074-1.8627-1.092-2.9622-1.4667-1.0994-0.3683-2.4317-0.4717-3.9904-0.3166-1.1965 0.1357-2.2766 0.4458-3.2403 0.9369-0.9701 0.4911-1.8238 1.079-2.5611 1.7639-1.2938 1.2057-2.1672 2.7908-2.6165 4.7542-0.1054-0.4216-0.2421-0.8223-0.4104-1.2005-0.595-1.3374-1.3452-2.4553-2.2442-3.3534-0.4527-0.4523-0.9701-0.8723-1.5522-1.2729-0.5821-0.3941-1.2223-0.7236-1.9079-0.9886-0.6856-0.2649-1.4423-0.4523-2.2636-0.5556-0.8214-0.1034-1.6817-0.1099-2.5806-0.0065-0.3751 0.0582-0.705 0.1163-0.996 0.1809zm-0.2587 3.9931c0.5691-0.239 1.2741-0.4135 2.1278-0.5169 0.8731-0.1034 1.701 0 2.4835 0.3166 0.7762 0.3166 1.4358 0.7108 1.9662 1.1889 0.5303 0.4782 1.0024 1.0791 1.4293 1.7898 0.4268 0.7108 0.6662 1.5701 0.7179 2.5781v0.4781c-0.0517 0.8465-0.2457 1.6283-0.5756 2.3391-0.3363 0.7171-0.7632 1.331-1.2935 1.8479-0.5304 0.5169-1.1448 0.9369-1.8303 1.2535-0.6856 0.3166-1.4293 0.4975-2.2249 0.5492-0.291 0-0.5691-0.0129-0.8343-0.0388-0.2651-0.0258-0.5174-0.0646-0.7502-0.1163-1.3582-0.2907-2.4836-0.9498-3.3826-1.9836-0.899-1.0339-1.4034-2.3003-1.5069-3.8122-0.0258-0.2649-0.0194-0.5298 0.0194-0.7948 0.0388-0.2649 0.0841-0.5298 0.1423-0.7947 0.1553-0.7108 0.401-1.3375 0.7502-1.8673 0.3428-0.5298 0.7438-0.9886 1.1965-1.3892 0.4721-0.4458 0.9961-0.7883 1.5652-1.0274z" fill="#fafafa"/>
</svg>
