<svg viewBox="0 0 113 23" style="background-color:#ffffff00" version="1.1" xmlns="http://www.w3.org/2000/svg" xmlns:xlink="http://www.w3.org/1999/xlink" xml:space="preserve" x="0px" y="0px" width="113px" height="23px" preserveAspectRatio="none">
	<g>
		<path d="M 91.0056 4.8559 C 92.0339 4.7267 92.9846 4.8559 93.8643 5.25 C 94.7374 5.6507 95.4424 6.1353 95.9727 6.7168 C 96.4189 7.1691 96.8199 7.7765 97.1821 8.526 C 97.5378 9.2819 97.7189 10.0961 97.7189 10.9684 C 97.7448 11.9246 97.5701 12.7646 97.2015 13.4883 C 96.8264 14.2184 96.3802 14.8322 95.8498 15.3363 C 95.3194 15.866 94.692 16.3054 93.9677 16.6608 C 93.2369 17.0226 92.4349 17.1971 91.5618 17.1971 C 90.7662 17.1971 90.0225 17.0679 89.337 16.8029 C 88.6449 16.538 88.037 16.1762 87.5067 15.711 C 86.9763 15.2458 86.53 14.716 86.1743 14.1215 C 85.8121 13.527 85.5728 12.9132 85.4435 12.2735 C 85.3077 11.6403 85.2753 11.0394 85.34 10.4708 C 85.4047 9.9022 85.5341 9.3659 85.7216 8.8619 C 85.9027 8.3579 86.142 7.9057 86.433 7.4921 C 86.7241 7.0851 87.028 6.7362 87.3514 6.4389 C 88.2439 5.5731 89.4663 5.0433 91.0056 4.8559 ZM 54.2557 7.4921 C 54.5467 7.9057 54.786 8.3579 54.9736 8.8619 C 55.1547 9.3659 55.2841 9.9022 55.3487 10.4708 C 55.4134 11.0394 55.381 11.6403 55.2517 12.2735 C 55.1223 12.9132 54.8766 13.527 54.5209 14.1215 C 54.1587 14.716 53.7189 15.2458 53.1885 15.711 C 52.6582 16.1762 52.0438 16.538 51.3583 16.8029 C 50.6662 17.0679 49.9225 17.1971 49.1334 17.1971 C 48.2538 17.1971 47.4518 17.0226 46.7274 16.6608 C 45.9966 16.3054 45.3693 15.866 44.8454 15.3363 C 44.3151 14.8322 43.8623 14.2184 43.4937 13.4883 C 43.1185 12.7646 42.9504 11.9246 42.9763 10.9684 C 42.9763 10.0961 43.1509 9.2819 43.5131 8.526 C 43.8688 7.7765 44.2698 7.1691 44.7225 6.7168 C 45.2528 6.1353 45.9513 5.6507 46.8309 5.25 C 47.704 4.8559 48.6548 4.7267 49.6896 4.8559 C 51.2289 5.0433 52.4447 5.5731 53.3437 6.4389 C 53.6606 6.7362 53.9647 7.0851 54.2557 7.4921 ZM 20.296 12.3492 L 20.3192 12.1443 C 20.4041 11.2652 20.4051 10.4448 20.3207 9.683 L 23.7212 9.6825 C 23.9281 8.3386 24.5425 7.2208 25.5643 6.3291 C 26.5862 5.4439 27.8215 4.9335 29.2832 4.8042 L 30.0787 4.8042 C 31.1653 4.8817 32.0707 5.1531 32.8015 5.6184 C 33.526 6.0836 34.1598 6.6457 34.6901 7.3048 L 20.296 12.3492 ZM 39.2511 12.5446 L 35.6796 12.5449 C 35.3627 13.6822 34.716 14.6965 33.7328 15.5817 C 32.7498 16.467 31.5468 16.9774 30.1176 17.1066 C 29.3479 17.1583 28.6494 17.0808 28.0285 16.8675 C 27.4076 16.6608 26.8578 16.4088 26.3858 16.118 C 26.0883 15.963 25.8102 15.7691 25.545 15.543 C 25.2798 15.3168 25.0663 15.0583 24.9112 14.7676 L 39.2542 9.8477 L 39.251 9.8829 L 39.2511 12.5446 ZM 8.1602 1.328 C 7.8691 1.3926 7.591 1.4702 7.3259 1.5477 C 6.5045 1.8385 5.7737 2.1874 5.1398 2.6009 C 4.506 3.0144 3.911 3.4926 3.3548 4.0482 C 2.6627 4.7396 2.0613 5.5537 1.5439 6.4906 C 1.0264 7.434 0.7031 8.5389 0.5737 9.8053 C 0.4703 10.7616 0.4767 11.6403 0.5867 12.448 C 0.7031 13.2557 0.9036 13.9987 1.1817 14.6707 C 1.4598 15.3427 1.7896 15.9565 2.1777 16.5122 C 2.5658 17.0679 2.9667 17.5589 3.3936 17.9789 C 3.8398 18.4312 4.3443 18.8512 4.9005 19.2324 C 5.4568 19.6201 6.0776 19.9496 6.7697 20.2275 C 7.4552 20.5053 8.199 20.7056 8.9945 20.8219 C 9.79 20.9317 10.6502 20.9447 11.5815 20.8413 C 12.8233 20.7121 13.9293 20.3826 14.9123 19.8656 C 15.8954 19.3487 16.7426 18.722 17.4605 17.9789 C 18.172 17.2682 18.7993 16.4218 19.3296 15.4396 C 19.6413 14.8662 19.8846 14.2504 20.058 13.5922 C 20.2276 14.315 20.4783 14.9911 20.8172 15.6206 C 21.3217 16.5639 21.9555 17.378 22.7316 18.0629 C 23.2037 18.5152 23.7146 18.9223 24.2579 19.2905 C 24.8012 19.6653 25.4027 19.9819 26.0624 20.2468 C 26.722 20.5117 27.4529 20.7056 28.2484 20.8219 C 29.0439 20.9317 29.9171 20.9447 30.8743 20.8413 C 32.0643 20.7121 33.1443 20.3954 34.1145 19.8915 C 35.0782 19.3875 35.9318 18.806 36.6756 18.1404 C 37.8643 17.0359 38.724 15.6153 39.2511 13.8815 L 39.251 20.9188 L 42.9763 20.9188 L 42.9763 18.877 C 43.3449 19.0967 43.7071 19.3164 44.0693 19.5425 C 44.425 19.7687 44.8002 19.9754 45.201 20.1563 C 45.8349 20.4536 46.5658 20.6733 47.4066 20.8154 C 48.2409 20.9576 49.1463 20.9964 50.1294 20.9188 C 51.3712 20.8154 52.4901 20.5053 53.4861 19.9884 C 54.4756 19.4715 55.3552 18.8447 56.1313 18.0952 C 56.8945 17.3586 57.5348 16.4993 58.0522 15.5172 C 58.3226 15.0072 58.5401 14.4632 58.7054 13.8861 L 58.7054 20.9188 L 62.4306 20.9188 L 62.4312 13.6553 C 62.6227 14.4269 62.8748 15.0868 63.1886 15.6334 C 63.719 16.5639 64.3334 17.378 65.0319 18.0887 C 65.7303 18.806 66.5647 19.4327 67.5348 19.9754 C 68.5049 20.5182 69.6238 20.8477 70.8979 20.9511 C 72.7994 21.1062 74.4421 20.893 75.8198 20.2985 C 77.1974 19.7041 78.3356 18.9287 79.2411 17.9724 C 80.0043 17.1583 80.6252 16.2279 81.1038 15.1941 C 81.4112 14.53 81.6352 13.8015 81.7789 13.0077 C 81.9463 13.9188 82.2327 14.7555 82.6366 15.5172 C 83.154 16.4993 83.7943 17.3586 84.5639 18.0952 C 85.3335 18.8447 86.2131 19.4715 87.2091 19.9884 C 88.1987 20.5053 89.3175 20.8154 90.5658 20.9188 C 91.5424 20.9964 92.4478 20.9576 93.2886 20.8154 C 94.123 20.6733 94.8603 20.4536 95.494 20.1563 C 95.8885 19.9754 96.2637 19.7687 96.6259 19.5425 C 96.9816 19.3164 97.3438 19.0967 97.7189 18.877 L 97.7189 20.9188 L 101.4442 20.9188 L 101.4435 13.2507 C 101.6184 14.2139 101.9658 15.108 102.4842 15.9307 C 103.1374 16.9774 103.8618 17.8497 104.6573 18.5346 C 105.4593 19.3035 106.423 19.9109 107.5483 20.3631 C 108.6736 20.8154 109.9866 20.9964 111.5 20.9188 L 111.5 17.1971 C 109.6179 17.0679 108.1046 16.4734 106.9662 15.4073 C 105.8279 14.3476 105.1941 12.8938 105.0648 11.0588 L 105.0648 1.0696 L 101.3395 1.0696 C 101.314 4.401 101.3017 7.0116 101.3013 8.9015 C 101.1364 8.0866 100.8615 7.3218 100.4805 6.6069 C 99.9438 5.6119 99.3163 4.759 98.5985 4.0482 C 97.8741 3.3052 97.0333 2.672 96.0697 2.1421 C 95.0995 1.6123 94.0065 1.2828 92.7906 1.1471 C 92.2085 1.0954 91.5747 1.089 90.9021 1.1277 C 90.2295 1.1665 89.6797 1.244 89.2529 1.3474 C 88.2697 1.5606 87.3773 1.9096 86.5688 2.4006 C 85.7604 2.8916 85.0554 3.4409 84.4475 4.0482 C 84.0206 4.4747 83.6261 4.9593 83.2575 5.515 C 82.8824 6.0707 82.5589 6.6909 82.2809 7.3629 C 82.0027 8.0349 81.8022 8.778 81.6858 9.5856 C 81.5945 10.2191 81.571 10.8959 81.615 11.6169 L 78.2451 11.5822 C 78.1158 12.4028 77.87 13.1716 77.5143 13.8824 C 77.152 14.5996 76.6929 15.2135 76.1237 15.7303 C 75.5546 16.2473 74.8949 16.6479 74.1512 16.9257 C 73.4073 17.2035 72.5989 17.3134 71.7322 17.2552 C 70.0895 17.126 68.7313 16.5251 67.6577 15.4525 C 66.5841 14.38 65.9761 13.0489 65.8468 11.4594 C 65.7692 10.4837 65.7498 9.4176 65.7886 8.2675 C 65.8274 7.1174 65.8468 5.9608 65.8468 4.7913 L 71.2278 4.7913 L 71.2278 1.0696 L 58.7054 1.0696 L 58.7054 8.2061 C 58.6187 7.9137 58.5196 7.6328 58.4078 7.3629 C 58.1298 6.6909 57.8064 6.0707 57.4377 5.515 C 57.0626 4.9593 56.6681 4.4747 56.2477 4.0482 C 55.6397 3.4409 54.9283 2.8916 54.1198 2.4006 C 53.3114 1.9096 52.4189 1.5606 51.4423 1.3474 C 51.0155 1.244 50.4592 1.1665 49.7867 1.1277 C 49.114 1.089 48.4866 1.0954 47.9045 1.1471 C 46.6822 1.2828 45.5892 1.6123 44.6255 2.1421 C 43.6554 2.672 42.8146 3.3052 42.0967 4.0482 C 41.3723 4.759 40.745 5.6119 40.2147 6.6069 C 39.8807 7.226 39.63 7.8828 39.4629 8.5769 C 38.7375 6.0653 37.4113 4.1543 35.4856 2.8529 C 34.606 2.2455 33.6229 1.7609 32.5234 1.3862 C 31.424 1.0179 30.0917 0.9145 28.533 1.0696 C 27.3365 1.2053 26.2564 1.5154 25.2927 2.0065 C 24.3226 2.4976 23.4689 3.0855 22.7316 3.7704 C 21.4378 4.9761 20.5644 6.5612 20.1151 8.5246 C 20.0097 8.103 19.873 7.7023 19.7047 7.3241 C 19.1097 5.9867 18.3595 4.8688 17.4605 3.9707 C 17.0078 3.5184 16.4904 3.0984 15.9083 2.6978 C 15.3262 2.3037 14.686 1.9742 14.0004 1.7092 C 13.3148 1.4443 12.5581 1.2569 11.7368 1.1536 C 10.9154 1.0502 10.0551 1.0437 9.1562 1.1471 C 8.7811 1.2053 8.4512 1.2634 8.1602 1.328 ZM 7.9015 5.3211 C 8.4706 5.0821 9.1756 4.9076 10.0293 4.8042 C 10.9024 4.7008 11.7303 4.8042 12.5128 5.1208 C 13.289 5.4374 13.9486 5.8316 14.479 6.3097 C 15.0093 6.7879 15.4814 7.3888 15.9083 8.0995 C 16.3351 8.8103 16.5745 9.6696 16.6262 10.6776 L 16.6262 11.1557 C 16.5745 12.0022 16.3805 12.784 16.0506 13.4948 C 15.7143 14.2119 15.2874 14.8258 14.7571 15.3427 C 14.2267 15.8596 13.6123 16.2796 12.9268 16.5962 C 12.2412 16.9128 11.4975 17.0937 10.7019 17.1454 C 10.4109 17.1454 10.1328 17.1325 9.8676 17.1066 C 9.6025 17.0808 9.3502 17.042 9.1174 16.9903 C 7.7592 16.6996 6.6338 16.0405 5.7348 15.0067 C 4.8358 13.9728 4.3314 12.7064 4.2279 11.1945 C 4.2021 10.9296 4.2085 10.6647 4.2473 10.3997 C 4.2861 10.1348 4.3314 9.8699 4.3896 9.605 C 4.5449 8.8942 4.7906 8.2675 5.1398 7.7377 C 5.4826 7.2079 5.8836 6.7491 6.3363 6.3485 C 6.8084 5.9027 7.3324 5.5602 7.9015 5.3211 Z" fill="#aaaaaa" />
		<path d="M 91.0056 5.8559 C 92.0339 5.7267 92.9846 5.8559 93.8643 6.25 C 94.7374 6.6507 95.4424 7.1353 95.9727 7.7168 C 96.4189 8.1691 96.8199 8.7765 97.1821 9.526 C 97.5378 10.2819 97.7189 11.0961 97.7189 11.9684 C 97.7448 12.9246 97.5701 13.7646 97.2015 14.4883 C 96.8264 15.2184 96.3802 15.8322 95.8498 16.3363 C 95.3194 16.866 94.692 17.3054 93.9677 17.6608 C 93.2369 18.0226 92.4349 18.1971 91.5618 18.1971 C 90.7662 18.1971 90.0225 18.0679 89.337 17.8029 C 88.6449 17.538 88.037 17.1762 87.5067 16.711 C 86.9763 16.2458 86.53 15.716 86.1743 15.1215 C 85.8121 14.527 85.5728 13.9132 85.4435 13.2735 C 85.3077 12.6403 85.2753 12.0394 85.34 11.4708 C 85.4047 10.9022 85.5341 10.3659 85.7216 9.8619 C 85.9027 9.3579 86.142 8.9057 86.433 8.4921 C 86.7241 8.0851 87.028 7.7362 87.3514 7.4389 C 88.2439 6.5731 89.4663 6.0433 91.0056 5.8559 ZM 54.2557 8.4921 C 54.5467 8.9057 54.786 9.3579 54.9736 9.8619 C 55.1547 10.3659 55.2841 10.9022 55.3487 11.4708 C 55.4134 12.0394 55.381 12.6403 55.2517 13.2735 C 55.1223 13.9132 54.8766 14.527 54.5209 15.1215 C 54.1587 15.716 53.7189 16.2458 53.1885 16.711 C 52.6582 17.1762 52.0438 17.538 51.3583 17.8029 C 50.6662 18.0679 49.9225 18.1971 49.1334 18.1971 C 48.2538 18.1971 47.4518 18.0226 46.7274 17.6608 C 45.9966 17.3054 45.3693 16.866 44.8454 16.3363 C 44.3151 15.8322 43.8623 15.2184 43.4937 14.4883 C 43.1185 13.7646 42.9504 12.9246 42.9763 11.9684 C 42.9763 11.0961 43.1509 10.2819 43.5131 9.526 C 43.8688 8.7765 44.2698 8.1691 44.7225 7.7168 C 45.2528 7.1353 45.9513 6.6507 46.8309 6.25 C 47.704 5.8559 48.6548 5.7267 49.6896 5.8559 C 51.2289 6.0433 52.4447 6.5731 53.3437 7.4389 C 53.6606 7.7362 53.9647 8.0851 54.2557 8.4921 ZM 20.296 13.3492 L 20.3192 13.1443 C 20.4041 12.2652 20.4051 11.4448 20.3207 10.683 L 23.7212 10.6825 C 23.9281 9.3386 24.5425 8.2208 25.5643 7.3291 C 26.5862 6.4439 27.8215 5.9335 29.2832 5.8042 L 30.0787 5.8042 C 31.1653 5.8817 32.0707 6.1531 32.8015 6.6184 C 33.526 7.0836 34.1598 7.6457 34.6901 8.3048 L 20.296 13.3492 ZM 39.2511 13.5446 L 35.6796 13.5449 C 35.3627 14.6822 34.716 15.6965 33.7328 16.5817 C 32.7498 17.467 31.5468 17.9774 30.1176 18.1066 C 29.3479 18.1583 28.6494 18.0808 28.0285 17.8675 C 27.4076 17.6608 26.8578 17.4088 26.3858 17.118 C 26.0883 16.963 25.8102 16.7691 25.545 16.543 C 25.2798 16.3168 25.0663 16.0583 24.9112 15.7676 L 39.2542 10.8477 L 39.251 10.8829 L 39.2511 13.5446 ZM 8.1602 2.328 C 7.8691 2.3926 7.591 2.4702 7.3259 2.5477 C 6.5045 2.8385 5.7737 3.1874 5.1398 3.6009 C 4.506 4.0144 3.911 4.4926 3.3548 5.0482 C 2.6627 5.7396 2.0613 6.5537 1.5439 7.4906 C 1.0264 8.434 0.7031 9.5389 0.5737 10.8053 C 0.4703 11.7616 0.4767 12.6403 0.5867 13.448 C 0.7031 14.2557 0.9036 14.9987 1.1817 15.6707 C 1.4598 16.3427 1.7896 16.9565 2.1777 17.5122 C 2.5658 18.0679 2.9667 18.5589 3.3936 18.9789 C 3.8398 19.4312 4.3443 19.8512 4.9005 20.2324 C 5.4568 20.6201 6.0776 20.9496 6.7697 21.2275 C 7.4552 21.5053 8.199 21.7056 8.9945 21.8219 C 9.79 21.9317 10.6502 21.9447 11.5815 21.8413 C 12.8233 21.7121 13.9293 21.3826 14.9123 20.8656 C 15.8954 20.3487 16.7426 19.722 17.4605 18.9789 C 18.172 18.2682 18.7993 17.4218 19.3296 16.4396 C 19.6413 15.8662 19.8846 15.2504 20.058 14.5922 C 20.2276 15.315 20.4783 15.9911 20.8172 16.6206 C 21.3217 17.5639 21.9555 18.378 22.7316 19.0629 C 23.2037 19.5152 23.7146 19.9223 24.2579 20.2905 C 24.8012 20.6653 25.4027 20.9819 26.0624 21.2468 C 26.722 21.5117 27.4529 21.7056 28.2484 21.8219 C 29.0439 21.9317 29.9171 21.9447 30.8743 21.8413 C 32.0643 21.7121 33.1443 21.3954 34.1145 20.8915 C 35.0782 20.3875 35.9318 19.806 36.6756 19.1404 C 37.8643 18.0359 38.724 16.6153 39.2511 14.8815 L 39.251 21.9188 L 42.9763 21.9188 L 42.9763 19.877 C 43.3449 20.0967 43.7071 20.3164 44.0693 20.5425 C 44.425 20.7687 44.8002 20.9754 45.201 21.1563 C 45.8349 21.4536 46.5658 21.6733 47.4066 21.8154 C 48.2409 21.9576 49.1463 21.9964 50.1294 21.9188 C 51.3712 21.8154 52.4901 21.5053 53.4861 20.9884 C 54.4756 20.4715 55.3552 19.8447 56.1313 19.0952 C 56.8945 18.3586 57.5348 17.4993 58.0522 16.5172 C 58.3226 16.0072 58.5401 15.4632 58.7054 14.8861 L 58.7054 21.9188 L 62.4306 21.9188 L 62.4312 14.6553 C 62.6227 15.4269 62.8748 16.0868 63.1886 16.6334 C 63.719 17.5639 64.3334 18.378 65.0319 19.0887 C 65.7303 19.806 66.5647 20.4327 67.5348 20.9754 C 68.5049 21.5182 69.6238 21.8477 70.8979 21.9511 C 72.7994 22.1062 74.4421 21.893 75.8198 21.2985 C 77.1974 20.7041 78.3356 19.9287 79.2411 18.9724 C 80.0043 18.1583 80.6252 17.2279 81.1038 16.1941 C 81.4112 15.53 81.6352 14.8015 81.7789 14.0077 C 81.9463 14.9188 82.2327 15.7555 82.6366 16.5172 C 83.154 17.4993 83.7943 18.3586 84.5639 19.0952 C 85.3335 19.8447 86.2131 20.4715 87.2091 20.9884 C 88.1987 21.5053 89.3175 21.8154 90.5658 21.9188 C 91.5424 21.9964 92.4478 21.9576 93.2886 21.8154 C 94.123 21.6733 94.8603 21.4536 95.494 21.1563 C 95.8885 20.9754 96.2637 20.7687 96.6259 20.5425 C 96.9816 20.3164 97.3438 20.0967 97.7189 19.877 L 97.7189 21.9188 L 101.4442 21.9188 L 101.4435 14.2507 C 101.6184 15.2139 101.9658 16.108 102.4842 16.9307 C 103.1374 17.9774 103.8618 18.8497 104.6573 19.5346 C 105.4593 20.3035 106.423 20.9109 107.5483 21.3631 C 108.6736 21.8154 109.9866 21.9964 111.5 21.9188 L 111.5 18.1971 C 109.6179 18.0679 108.1046 17.4734 106.9662 16.4073 C 105.8279 15.3476 105.1941 13.8938 105.0648 12.0588 L 105.0648 2.0696 L 101.3395 2.0696 C 101.314 5.401 101.3017 8.0116 101.3013 9.9015 C 101.1364 9.0866 100.8615 8.3218 100.4805 7.6069 C 99.9438 6.6119 99.3163 5.759 98.5985 5.0482 C 97.8741 4.3052 97.0333 3.672 96.0697 3.1421 C 95.0995 2.6123 94.0065 2.2828 92.7906 2.1471 C 92.2085 2.0954 91.5747 2.089 90.9021 2.1277 C 90.2295 2.1665 89.6797 2.244 89.2529 2.3474 C 88.2697 2.5606 87.3773 2.9096 86.5688 3.4006 C 85.7604 3.8916 85.0554 4.4409 84.4475 5.0482 C 84.0206 5.4747 83.6261 5.9593 83.2575 6.515 C 82.8824 7.0707 82.5589 7.6909 82.2809 8.3629 C 82.0027 9.0349 81.8022 9.778 81.6858 10.5856 C 81.5945 11.2191 81.571 11.8959 81.615 12.6169 L 78.2451 12.5822 C 78.1158 13.4028 77.87 14.1716 77.5143 14.8824 C 77.152 15.5996 76.6929 16.2135 76.1237 16.7303 C 75.5546 17.2473 74.8949 17.6479 74.1512 17.9257 C 73.4073 18.2035 72.5989 18.3134 71.7322 18.2552 C 70.0895 18.126 68.7313 17.5251 67.6577 16.4525 C 66.5841 15.38 65.9761 14.0489 65.8468 12.4594 C 65.7692 11.4837 65.7498 10.4176 65.7886 9.2675 C 65.8274 8.1174 65.8468 6.9608 65.8468 5.7913 L 71.2278 5.7913 L 71.2278 2.0696 L 58.7054 2.0696 L 58.7054 9.2061 C 58.6187 8.9137 58.5196 8.6328 58.4078 8.3629 C 58.1298 7.6909 57.8064 7.0707 57.4377 6.515 C 57.0626 5.9593 56.6681 5.4747 56.2477 5.0482 C 55.6397 4.4409 54.9283 3.8916 54.1198 3.4006 C 53.3114 2.9096 52.4189 2.5606 51.4423 2.3474 C 51.0155 2.244 50.4592 2.1665 49.7867 2.1277 C 49.114 2.089 48.4866 2.0954 47.9045 2.1471 C 46.6822 2.2828 45.5892 2.6123 44.6255 3.1421 C 43.6554 3.672 42.8146 4.3052 42.0967 5.0482 C 41.3723 5.759 40.745 6.6119 40.2147 7.6069 C 39.8807 8.226 39.63 8.8828 39.4629 9.5769 C 38.7375 7.0653 37.4113 5.1543 35.4856 3.8529 C 34.606 3.2455 33.6229 2.7609 32.5234 2.3862 C 31.424 2.0179 30.0917 1.9145 28.533 2.0696 C 27.3365 2.2053 26.2564 2.5154 25.2927 3.0065 C 24.3226 3.4976 23.4689 4.0855 22.7316 4.7704 C 21.4378 5.9761 20.5644 7.5612 20.1151 9.5246 C 20.0097 9.103 19.873 8.7023 19.7047 8.3241 C 19.1097 6.9867 18.3595 5.8688 17.4605 4.9707 C 17.0078 4.5184 16.4904 4.0984 15.9083 3.6978 C 15.3262 3.3037 14.686 2.9742 14.0004 2.7092 C 13.3148 2.4443 12.5581 2.2569 11.7368 2.1536 C 10.9154 2.0502 10.0551 2.0437 9.1562 2.1471 C 8.7811 2.2053 8.4512 2.2634 8.1602 2.328 ZM 7.9015 6.3211 C 8.4706 6.0821 9.1756 5.9076 10.0293 5.8042 C 10.9024 5.7008 11.7303 5.8042 12.5128 6.1208 C 13.289 6.4374 13.9486 6.8316 14.479 7.3097 C 15.0093 7.7879 15.4814 8.3888 15.9083 9.0995 C 16.3351 9.8103 16.5745 10.6696 16.6262 11.6776 L 16.6262 12.1557 C 16.5745 13.0022 16.3805 13.784 16.0506 14.4948 C 15.7143 15.2119 15.2874 15.8258 14.7571 16.3427 C 14.2267 16.8596 13.6123 17.2796 12.9268 17.5962 C 12.2412 17.9128 11.4975 18.0937 10.7019 18.1454 C 10.4109 18.1454 10.1328 18.1325 9.8676 18.1066 C 9.6025 18.0808 9.3502 18.042 9.1174 17.9903 C 7.7592 17.6996 6.6338 17.0405 5.7348 16.0067 C 4.8358 14.9728 4.3314 13.7064 4.2279 12.1945 C 4.2021 11.9296 4.2085 11.6647 4.2473 11.3997 C 4.2861 11.1348 4.3314 10.8699 4.3896 10.605 C 4.5449 9.8942 4.7906 9.2675 5.1398 8.7377 C 5.4826 8.2079 5.8836 7.7491 6.3363 7.3485 C 6.8084 6.9027 7.3324 6.5602 7.9015 6.3211 Z" fill="#fafafa" />
	</g>
</svg>
